<?xml version="1.0" encoding="UTF-8"?><svg id="Layer_1" xmlns="http://www.w3.org/2000/svg" viewBox="0 0 1261.44 271.68"><defs><style>.cls-1{fill:#fff;stroke:#000;stroke-miterlimit:10;}</style></defs><path d="M184.16,181.34c-10.87-3.34-22.31,5.05-32.41,12.45-2.49,1.82-4.84,3.55-7.07,5.01-10.38,7.42-19.8,12.67-29.63,16.54-1.83.62-3.98,1.37-6.37,2.21-18.88,6.64-54.02,18.99-71.23,10.13-4.54-2.34-7.58-6.08-9.02-11.07-1.52-6.64,1.42-18.33,4.02-28.65.31-1.25.62-2.48.92-3.67,3.46-13.29,7.73-28.01,13.05-44.96,1.43-4.11,2.69-8.19,3.92-12.13,3.45-11.13,6.72-21.64,13.04-31.51,2.81-4.18,6.5-8.01,10.07-11.71,5.19-5.38,10.57-10.95,13.72-17.99,4.15-10.37,3.84-19.65-.89-26.83-5.24-7.94-15.47-12.49-28.75-12.8-17.69-1.5-33.06,2.75-43.29,11.95C5.24,46.38.32,58.19,0,72.43v.16c.24,19.76.29,42.9.35,67.4.08,34.04.16,69.25.77,97.07-.99,16.99,12.36,31.96,30.4,34.09,3.7.4,7.61.55,11.64.55,5.4,0,10.99-.26,16.46-.52,5.77-.27,11.74-.55,17.41-.52l11.53-.3c21.1-.53,42.92-1.09,63.73-2.21,2.37-.2,4.84-.34,7.47-.48,11.56-.64,24.66-1.36,30.99-8.29,9.63-10.2,13.99-35.45,9.52-55.12-1.9-8.36-6.23-19.11-16.1-22.91Z"/><path d="M290.7,123.46c3.5-.32,7.06-.13,10.83.08,5.01.27,10.19.56,15.42-.42,14.41-2.23,24.7-9.2,28.22-19.13,2.97-8.44,4.69-21.08,4.48-33-.25-13.97-3.03-25.7-7.84-33.05-7.35-10.62-21.62-10.54-27.42-10.01-15.97,1.38-31.81,4.74-39.47,19.78-2.89,5.32-5.12,11.11-7.27,16.71-2.34,6.08-4.75,12.36-8.01,18.02-5.82,10.29-14.01,20.38-23.67,29.19-9.35,8.25-17.39,14.23-28.49,10.12-14.84-5.98-34.31-30.71-33.15-46.83.58-5.34,5.58-8.21,10.43-10.99,1.38-.79,3.68-1.72,5.38-2.61,1.14-.6,2.33-1.09,3.54-1.53,9.61-3.44,19.87-12.48,18.22-19.7-1.51-6.62-6.35-10.97-13.25-11.91-9.5-1.58-32.93-.46-42.31.61-3.45.4-6.71.77-9.93,1.01-2.35.12-4.81.1-7.4.09-8.01-.05-16.3-.11-23.32,3.67-3.52,1.83-5.96,4.91-7.05,8.92-1.4,5.15-.4,11.32,2.62,16.12l.12.2c2.29,3.88,5.44,7.3,8.22,10.33,36.53,39.3,60.25,65.51,70.53,77.91,4.21,5.05,7.38,9.6,11.32,16.23,3.41,5.77,6.81,11.87,10.1,17.77,12.54,22.48,25.5,45.73,44.91,63.23,13.81,13.05,37.16,23.25,56.93,23.25,6.56,0,12.72-1.12,18.02-3.64,8.71-4.13,18.73-13.95,17.03-37.24-.7-11.45-2.32-27.74-8.36-37.02-4.55-6.53-13.53-8.28-21.35-4.17-5.27,2.8-9.13,7.61-12.86,12.26-3.25,4.04-6.6,8.22-10.85,10.99-5.35,3.65-12.35,3.02-21.41-1.91-11.06-6.13-18.58-16.82-21.17-30.11-2.43-12.27,1.41-26.06,10.04-35.99,7.92-9.23,19.02-15.98,28.24-17.22Z"/><path d="M379.51,178.97c2.9,1.58,6.17,2.37,9.8,2.37,6.79,0,14.83-2.76,24.04-8.26,39.66-23.9,82.77-53.67,101.75-93.26,7-15.25,12.83-34.24-4.37-45.83l-.21-.14c-13.73-8.33-27.24-6.82-42.89-5.07-2.66.3-5.38.6-8.17.87-10.14,1-20.92,1.23-31.17.66-5.88-.3-11.63-.81-17.2-1.31-1.62-.15-3.22-.29-4.8-.42l-1.36-.11c-10.03-.78-19.49-1.52-28.44,1.86-19.31,8.29-16.7,28.84-14.4,46.98.32,2.49.63,4.93.88,7.31,1.66,14.48,1.86,29.46,2.06,43.95.07,5.2.14,10.57.28,15.82.6,17.89,5.51,29.85,14.2,34.58ZM406.65,104.05c.53-22.19,2.87-39.64,27.23-45.71,6.97-1.85,16.21-3.2,24.78-3.2,9.74,0,18.6,1.75,22.27,6.49,2.89,3.75,2.39,9.12-1.48,15.99-6.9,12.22-18.08,24.58-34.15,37.78l-.25.2c-.72.54-1.59,1.21-2.6,1.98-7.84,6.01-26.18,20.08-32.16,17.09-4.32-2.85-4-14.33-3.75-23.55.07-2.57.14-5,.11-7.08Z"/><path d="M499.52,176.86c8.24-5.99,18.12-5.95,27.68-5.9,3.98.02,8.1.04,12.09-.38,6.68-.79,14.16-2.77,22.08-4.87,1.68-.44,3.39-.9,5.13-1.35,10.45-2.81,25.8-7.21,39.62-12.19,10-3.64,18.33-6.98,26.5-11.47,22.55-12.43,40.36-38.56,43.32-63.58,1.89-20.5-.64-33.96-7.76-41.16l-.15-.14c-5.87-5.2-14.36-6.06-23.28-6.53-4.91-.23-10.71-.31-17.25-.24-3.48.05-6.96.12-10.45.19-11.8.24-23.99.49-35.44-.28-2.98-.04-6.6-.34-10.44-.65-11.62-.95-26.09-2.13-33.66,3.11-4.78,3.54-5.42,10.72-5.93,16.49l-.15,1.67c-1.45,23.34-10.44,46.51-24.67,63.59-26.94,33.21-58.2,70.25-88.08,89.38-8.59,5.24-19.12,6.32-29.31,7.36-1.55.16-3.09.32-4.59.49-7.01.81-12.14,5.87-14.07,13.86-2.42,8.77-2.59,19.7-.45,28.49,2.41,11.6,13.26,13.74,22.45,14.3,6.64.39,14.34.69,22.39.69,13.29,0,27.55-.81,39.61-3.34,9.92-2.22,17.07-8.35,19.13-16.4,1.99-7.79-1.08-15.95-8.43-22.4-8.53-7.44-5.55-10.95.95-18.63,5.42-5.94,19.49-20.77,33.17-30.1ZM562.38,102.14c4.19-10.57,8.52-21.5,18.71-27.2,8.63-5.03,19.26-7.01,28.55-8.48,3.71-.61,7.03-.92,9.9-.92,5.01,0,8.63.92,10.54,2.75,7.62,6.89,3.39,18.89,1.22,23.73-5.87,12.85-19.72,23.87-42.33,33.69l-.76.31c-10.03,4.12-18.69,7.69-28.61,8.54h-.2c-4.28.3-6.99-.35-8.04-1.94-1.87-2.82,1.15-8.83,4.08-14.64,1.4-2.78,2.85-5.65,3.85-8.31,1.08-2.44,2.1-5.02,3.09-7.52Z"/><path d="M775.24,186.16c-.08-38.16-.17-81.42-9-110.55l-.11-.28c-8.83-20.93-22.26-45.71-36.46-45.71-.15,0-.31,0-.47,0-7.14.21-23.85.71-29.27,7.74-1.66,2.16-2.15,4.75-1.47,7.69.23,1.22.5,2.49.78,3.79,1.48,6.97,3.16,14.86.35,21.23-8.68,20.24-46.66,82.65-92.27,104.63-19.4,9.3-40.81,17.03-61.52,24.5-14.61,5.27-28.42,10.25-40.2,15.35-6.76,3.49-11.42,8.34-13.86,14.41-2.97,8.01-4.13,20.49,2.43,29.33,4.32,5.2,10.66,5.37,17.39,5.55,5.97.03,13.09.15,20.63.28,10.25.17,21.46.36,32.27.36,17.47,0,33.89-.5,43.5-2.36,6.48-2.24,9.87-11.69,11.58-19.21,2.14-9.45,2.38-19.2,1.7-24.27-2.29-15.23,9.85-22.5,20.69-27.13l1.19-.53c9.41-4.15,19.15-8.44,27.85-14.32,2.58-1.88,4.85-3.65,7.04-5.35,9.77-7.6,16.22-12.58,31.23-12.51,5.89-.27,14.43-.53,21.68-.24,9.69.27,17.72,1.33,17.79,11.7.71,10.47-.89,26.02-6.08,35.42-5.93,10.31-15.41,9.34-25.44,8.32-10.87-1.11-23.19-2.37-31.92,11.36-6.32,9.48-3.09,21.94,3.14,28.83,3.81,4.68,10.77,7.52,19.57,8.01,10.45.82,23.85-.18,33.63-.9l.97-.08c6.87-.55,13.98-1.11,19.83-5.33,9.6-7.11,14.01-19.14,13.13-35.74-.27-10.65-.3-22-.32-34.01ZM733.16,70.61c5.65,3.75,8.37,13.78,10.17,20.43l.11.41c1.4,6.77,4.03,23.67-1.62,34.33l-.13.21c-5.63,8.77-22.69,7.02-30.89,6.17-3.17-.34-6.05-1.47-6.05-2.39-.02-2.04,1.13-4.08,2.35-6.25.69-1.23,1.4-2.49,1.96-3.83,1.9-3.88,4.09-8.83,6.71-15.13,2.15-5.2,4.37-10.78,6.77-17.04.68-1.57,1.32-3.34,2-5.22,1.77-4.88,3.77-10.41,6.46-11.64.36-.17.73-.25,1.11-.25.34,0,.68.06,1.04.19Z"/><path d="M1162.72,174.32c-12.84-12.63-31.94-10.79-40.93-7.22-10.64,4.23-14.19,12.08-15.87,21.53-2.62,14.7-8.73,22.14-19.25,23.4-29.11,4.69-82.63,6.69-105.41,2.12-7.15-1.42-11.28-5.02-12.99-11.32-1.38-4.94-1.77-10.43-2.18-16.24-.57-8.02-1.16-16.3-4.51-23.28-8.28-19.53-52.65-26.28-71.33-28.27-3.03-.36-7.02-.53-10.62-.67,40.12-5.82,65.9-13.77,76.68-23.64,7.88-6.84,8.58-18.52,8.23-29.04-.91-21.97-3.6-46.01-24.06-53.24-37.1-8.45-124.93-4.42-162.46-2.69-4.24.36-7.86,2.25-10.19,5.3-2.49,3.27-3.38,7.69-2.5,12.43,1.22,7.56,7.42,12.26,13.42,16.81,3.61,2.73,7.01,5.32,9.17,8.36,2.1,3.19,2.74,6.99,3.18,10.29,3.12,31.21,6.93,93.63,1.42,129.65-.57,3.92-1.75,8.21-3,12.76-2.29,8.32-4.66,16.92-3.37,23.99,2.86,13.67,17.38,18.45,31.47,18.45,1.61,0,3.21-.06,4.78-.18,6.02-.14,12.28-.37,18.34-.6,2.49-.09,4.97-.18,7.43-.27l1.52-.06c9.02-.35,15.54-.6,20.09-4.82,7.32-7.25,7.83-18.81,7.7-23.45-.62-13.81-10.21-16.38-19.49-18.86-5.39-1.44-10.97-2.94-15.04-6.55-6.96-6.84-8.68-19.29-7.96-28.69.32-7.02,5.27-11.54,13.66-12.42,12.66-2.36,30.44-1.8,41.63,4.76,15.37,7.94,25.89,24.37,26.82,35.03.3,4.28-.31,8.67-.91,12.92-1.42,10.12-2.76,19.68,7.57,27.25,8.33,6.62,19.11,8.94,26.7,9.71,41.57,3.51,156.77,9.16,195.18,2.29,6.71-1.36,12.86-9.41,17.33-22.67,7.19-21.36,8.67-52.71-.09-62.65l-.16-.21ZM921.57,79.17c-1.32,6.29-5.65,12.21-11.31,15.48-4.97,3.3-13.39,5.8-25.05,7.43-10.67,1.56-22.58,2.45-31.77,2.35-.86-.05-1.82-.07-2.84-.1-5.77-.15-13.66-.35-15.14-5.65l-.05-.15c-.54-1.77-.81-4.16-1.12-6.92-.18-1.63-.38-3.39-.66-5.28-.22-1.36-.46-2.71-.69-4.03-1.51-8.6-2.94-16.72.89-21.42,2.45-3,6.93-4.54,13.7-4.73,3.37-.04,7.45-.24,11.77-.45,20.82-1.03,49.34-2.43,59.6,10.11,3.52,4.79,3.39,9.92,2.66,13.38Z"/><path d="M1017.06,209.11c6.5,0,12.74-.43,17.38-.75,1.05-.07,2.02-.14,2.89-.19,14.75-.96,18.83-7.18,24.47-15.79,1.77-2.7,3.77-5.75,6.3-8.89,4.02-4.88,9.05-9.05,14.93-12.42,15.92-9.16,27.07-13.95,38.34-16.78,5.08-1.28,12.45-2.11,17.49-2.84,8.8-1.29,20.5-.96,24.56-11.09,10.6-26.45,16.03-87.17-9.16-103.08l-.23-.13c-21.58-10.77-72.81-8.31-110.21-6.52-8.58.41-15.99.77-22.13.91-1.53.1-3.06.18-4.6.25-7.39.37-15.02.75-21.99,3.77-7.4,2.96-12.9,9.69-13.67,16.72-.54,4.17-.56,8.52-.57,12.73,0,1.9,0,3.82-.06,5.76.03,7.08-.03,15.65-.09,24.72-.26,36.43-.58,81.78,4.04,102.31,3.17,9.33,18.34,11.32,32.3,11.32ZM1025.68,109.99c.51-3.64,1-7.08,1.28-10.04l.17-1.18c.81-5.57,1.4-9.59,5.08-13.79,6.36-7.36,16.63-13.26,27.48-15.76,10.79-2.35,23.55-4.64,35.17-4.64,12.85,0,24.29,2.8,30.07,11.43,6.56,11.45-.64,27.28-11.21,34.34l-.22.15c-5.98,4.03-13.09,6.27-21.33,8.85-1.35.42-2.73.86-4.13,1.31-2.54.79-5.07,1.55-7.59,2.31-7.86,2.36-15.29,4.58-22.04,7.55-3.97,1.74-9.6,4.83-12.84,7.06-5.03,3.79-11.38,7.97-16.01,6.68-2.04-.57-3.56-2.16-4.63-4.84-2.46-6.57-.75-18.72.75-29.44Z"/><path d="M1200.41,10.75h4.48v25.34h-4.48V10.75ZM1203.97,31.87h9.84v4.22h-9.84v-4.22Z"/><path d="M1225.63,10.75h5.33l9.95,25.34h-4.96l-7.89-20.89h.37l-7.9,20.89h-4.85l9.95-25.34ZM1223.1,26.61h10.32l1.69,4.15h-13.62l1.62-4.15Z"/><path d="M1244.14,10.75h4.33v25.34h-4.33V10.75ZM1246.89,32.05h6.39c.66,0,1.26-.16,1.8-.48.54-.32.96-.75,1.27-1.28s.46-1.14.46-1.8-.15-1.27-.46-1.82-.73-.98-1.27-1.29c-.54-.31-1.14-.46-1.8-.46h-6.39v-3.82h5.36c.59,0,1.11-.13,1.58-.4.46-.27.84-.65,1.12-1.14.28-.49.42-1.03.42-1.62s-.13-1.13-.4-1.62c-.27-.49-.64-.87-1.12-1.14-.48-.27-1.01-.4-1.6-.4h-5.36v-4.04h6.46c1.22,0,2.34.28,3.36.83,1.02.55,1.82,1.32,2.41,2.29.59.98.88,2.08.88,3.3,0,1.42-.4,2.69-1.19,3.82-.8,1.13-1.78,1.81-2.96,2.06v-.66c1.05.1,2.01.47,2.86,1.1s1.52,1.46,2,2.46.72,2.09.72,3.27c0,1.32-.31,2.5-.94,3.54-.62,1.04-1.47,1.85-2.55,2.44s-2.28.88-3.6.88h-7.45v-4.04Z"/><path class="cls-1" d="M207.75,171.08c-10.87-3.34-22.31,5.05-32.41,12.45-2.49,1.82-4.84,3.55-7.07,5.01-10.38,7.42-19.8,12.67-29.63,16.54-1.83.62-3.98,1.37-6.37,2.21-18.88,6.64-54.02,18.99-71.23,10.13-4.54-2.34-7.58-6.08-9.02-11.07-1.52-6.64,1.42-18.33,4.02-28.65.31-1.25.62-2.48.92-3.67,3.46-13.29,7.73-28.01,13.05-44.96,1.43-4.11,2.69-8.19,3.92-12.13,3.45-11.13,6.72-21.64,13.04-31.51,2.81-4.18,6.5-8.01,10.07-11.71,5.19-5.38,10.57-10.95,13.72-17.99,4.15-10.37,3.84-19.65-.89-26.83-5.24-7.94-15.47-12.49-28.75-12.8-17.69-1.5-33.06,2.75-43.29,11.95-9,8.09-13.92,19.89-14.23,34.13v.16c.24,19.76.29,42.9.35,67.4.08,34.04.16,69.25.77,97.07-.99,16.99,12.36,31.96,30.4,34.09,3.7.4,7.61.55,11.64.55,5.4,0,10.99-.26,16.46-.52,5.77-.27,11.74-.55,17.41-.52l11.53-.3c21.1-.53,42.92-1.09,63.73-2.21,2.37-.2,4.84-.34,7.47-.48,11.56-.64,24.66-1.36,30.99-8.29,9.63-10.2,13.99-35.45,9.52-55.12-1.9-8.36-6.23-19.11-16.1-22.91Z"/><path class="cls-1" d="M314.29,113.21c3.5-.32,7.06-.13,10.83.08,5.01.27,10.19.56,15.42-.42,14.41-2.23,24.7-9.2,28.22-19.13,2.97-8.44,4.69-21.08,4.48-33-.25-13.97-3.03-25.7-7.84-33.05-7.35-10.62-21.62-10.54-27.42-10.01-15.97,1.38-31.81,4.74-39.47,19.78-2.89,5.32-5.12,11.11-7.27,16.71-2.34,6.08-4.75,12.36-8.01,18.02-5.82,10.29-14.01,20.38-23.67,29.19-9.35,8.25-17.39,14.23-28.49,10.12-14.84-5.98-34.31-30.71-33.15-46.83.58-5.34,5.58-8.21,10.43-10.99,1.38-.79,3.68-1.72,5.38-2.61,1.14-.6,2.33-1.09,3.54-1.53,9.61-3.44,19.87-12.48,18.22-19.7-1.51-6.62-6.35-10.97-13.25-11.91-9.5-1.58-32.93-.46-42.31.61-3.45.4-6.71.77-9.93,1.01-2.35.12-4.81.1-7.4.09-8.01-.05-16.3-.11-23.32,3.67-3.52,1.83-5.96,4.91-7.05,8.92-1.4,5.15-.4,11.32,2.62,16.12l.12.2c2.29,3.88,5.44,7.3,8.22,10.33,36.53,39.3,60.25,65.51,70.53,77.91,4.21,5.05,7.38,9.6,11.32,16.23,3.41,5.77,6.81,11.87,10.1,17.77,12.54,22.48,25.5,45.73,44.91,63.23,13.81,13.05,37.16,23.25,56.93,23.25,6.56,0,12.72-1.12,18.02-3.64,8.71-4.13,18.73-13.95,17.03-37.24-.7-11.45-2.32-27.74-8.36-37.02-4.55-6.53-13.53-8.28-21.35-4.17-5.27,2.8-9.13,7.61-12.86,12.26-3.25,4.04-6.6,8.22-10.85,10.99-5.35,3.65-12.35,3.02-21.41-1.91-11.06-6.13-18.58-16.82-21.17-30.11-2.43-12.27,1.41-26.06,10.04-35.99,7.92-9.23,19.02-15.98,28.24-17.22Z"/><path class="cls-1" d="M403.1,168.72c2.9,1.58,6.17,2.37,9.8,2.37,6.79,0,14.83-2.76,24.04-8.26,39.66-23.9,82.77-53.67,101.75-93.26,7-15.25,12.83-34.24-4.37-45.83l-.21-.14c-13.73-8.33-27.24-6.82-42.89-5.07-2.66.3-5.38.6-8.17.87-10.14,1-20.92,1.23-31.17.66-5.88-.3-11.63-.81-17.2-1.31-1.62-.15-3.22-.29-4.8-.42l-1.36-.11c-10.03-.78-19.49-1.52-28.44,1.86-19.31,8.29-16.7,28.84-14.4,46.98.32,2.49.63,4.93.88,7.31,1.66,14.48,1.86,29.46,2.06,43.95.07,5.2.14,10.57.28,15.82.6,17.89,5.51,29.85,14.2,34.58ZM430.24,93.8c.53-22.19,2.87-39.64,27.23-45.71,6.97-1.85,16.21-3.2,24.78-3.2,9.74,0,18.6,1.75,22.27,6.49,2.89,3.75,2.39,9.12-1.48,15.99-6.9,12.22-18.08,24.58-34.15,37.78l-.25.2c-.72.54-1.59,1.21-2.6,1.98-7.84,6.01-26.18,20.08-32.16,17.09-4.32-2.85-4-14.33-3.75-23.55.07-2.57.14-5,.11-7.08Z"/><path class="cls-1" d="M523.11,166.61c8.24-5.99,18.12-5.95,27.68-5.9,3.98.02,8.1.04,12.09-.38,6.68-.79,14.16-2.77,22.08-4.87,1.68-.44,3.39-.9,5.13-1.35,10.45-2.81,25.8-7.21,39.62-12.19,10-3.64,18.33-6.98,26.5-11.47,22.55-12.43,40.36-38.56,43.32-63.58,1.89-20.5-.64-33.96-7.76-41.16l-.15-.14c-5.87-5.2-14.36-6.06-23.28-6.53-4.91-.23-10.71-.31-17.25-.24-3.48.05-6.96.12-10.45.19-11.8.24-23.99.49-35.44-.28-2.98-.04-6.6-.34-10.44-.65-11.62-.95-26.09-2.13-33.66,3.11-4.78,3.54-5.42,10.72-5.93,16.49l-.15,1.67c-1.45,23.34-10.44,46.51-24.67,63.59-26.94,33.21-58.2,70.25-88.08,89.38-8.59,5.24-19.12,6.32-29.31,7.36-1.55.16-3.09.32-4.59.49-7.01.81-12.14,5.87-14.07,13.86-2.42,8.77-2.59,19.7-.45,28.49,2.41,11.6,13.26,13.74,22.45,14.3,6.64.39,14.34.69,22.39.69,13.29,0,27.55-.81,39.61-3.34,9.92-2.22,17.07-8.35,19.13-16.4,1.99-7.79-1.08-15.95-8.43-22.4-8.53-7.44-5.55-10.95.95-18.63,5.42-5.94,19.49-20.77,33.17-30.1ZM585.97,91.89c4.19-10.57,8.52-21.5,18.71-27.2,8.63-5.03,19.26-7.01,28.55-8.48,3.71-.61,7.03-.92,9.9-.92,5.01,0,8.63.92,10.54,2.75,7.62,6.89,3.39,18.89,1.22,23.73-5.87,12.85-19.72,23.87-42.33,33.69l-.76.31c-10.03,4.12-18.69,7.69-28.61,8.54h-.2c-4.28.3-6.99-.35-8.04-1.94-1.87-2.82,1.15-8.83,4.08-14.64,1.4-2.78,2.85-5.65,3.85-8.31,1.08-2.44,2.1-5.02,3.09-7.52Z"/><path class="cls-1" d="M798.83,175.91c-.08-38.16-.17-81.42-9-110.55l-.11-.28c-8.83-20.93-22.26-45.71-36.46-45.71-.15,0-.31,0-.47,0-7.14.21-23.85.71-29.27,7.74-1.66,2.16-2.15,4.75-1.47,7.69.23,1.22.5,2.49.78,3.79,1.48,6.97,3.16,14.86.35,21.23-8.68,20.24-46.66,82.65-92.27,104.63-19.4,9.3-40.81,17.03-61.52,24.5-14.61,5.27-28.42,10.25-40.2,15.35-6.76,3.49-11.42,8.34-13.86,14.41-2.97,8.01-4.13,20.49,2.43,29.33,4.32,5.2,10.66,5.37,17.39,5.55,5.97.03,13.09.15,20.63.28,10.25.17,21.46.36,32.27.36,17.47,0,33.89-.5,43.5-2.36,6.48-2.24,9.87-11.69,11.58-19.21,2.14-9.45,2.38-19.2,1.7-24.27-2.29-15.23,9.85-22.5,20.69-27.13l1.19-.53c9.41-4.15,19.15-8.44,27.85-14.32,2.58-1.88,4.85-3.65,7.04-5.35,9.77-7.6,16.22-12.58,31.23-12.51,5.89-.27,14.43-.53,21.68-.24,9.69.27,17.72,1.33,17.79,11.7.71,10.47-.89,26.02-6.08,35.42-5.93,10.31-15.41,9.34-25.44,8.32-10.87-1.11-23.19-2.37-31.92,11.36-6.32,9.48-3.09,21.94,3.14,28.83,3.81,4.68,10.77,7.52,19.57,8.01,10.45.82,23.85-.18,33.63-.9l.97-.08c6.87-.55,13.98-1.11,19.83-5.33,9.6-7.11,14.01-19.14,13.13-35.74-.27-10.65-.3-22-.32-34.01ZM756.75,60.36c5.65,3.75,8.37,13.78,10.17,20.43l.11.41c1.4,6.77,4.03,23.67-1.62,34.33l-.13.21c-5.63,8.77-22.69,7.02-30.89,6.17-3.17-.34-6.05-1.47-6.05-2.39-.02-2.04,1.13-4.08,2.35-6.25.69-1.23,1.4-2.49,1.96-3.83,1.9-3.88,4.09-8.83,6.71-15.13,2.15-5.2,4.37-10.78,6.77-17.04.68-1.57,1.32-3.34,2-5.22,1.77-4.88,3.77-10.41,6.46-11.64.36-.17.73-.25,1.11-.25.34,0,.68.06,1.04.19Z"/><path class="cls-1" d="M1186.31,164.07c-12.84-12.63-31.94-10.79-40.93-7.22-10.64,4.23-14.19,12.08-15.87,21.53-2.62,14.7-8.73,22.14-19.25,23.4-29.11,4.69-82.63,6.69-105.41,2.12-7.15-1.42-11.28-5.02-12.99-11.32-1.38-4.94-1.77-10.43-2.18-16.24-.57-8.02-1.16-16.3-4.51-23.28-8.28-19.53-52.65-26.28-71.33-28.27-3.03-.36-7.02-.53-10.62-.67,40.12-5.82,65.9-13.77,76.68-23.64,7.88-6.84,8.58-18.52,8.23-29.04-.91-21.97-3.6-46.01-24.06-53.24-37.1-8.45-124.93-4.42-162.46-2.69-4.24.36-7.86,2.25-10.19,5.3-2.49,3.27-3.38,7.69-2.5,12.43,1.22,7.56,7.42,12.26,13.42,16.81,3.61,2.73,7.01,5.32,9.17,8.36,2.1,3.19,2.74,6.99,3.18,10.29,3.12,31.21,6.93,93.63,1.42,129.65-.57,3.92-1.75,8.21-3,12.76-2.29,8.32-4.66,16.92-3.37,23.99,2.86,13.67,17.38,18.45,31.47,18.45,1.61,0,3.21-.06,4.78-.18,6.02-.14,12.28-.37,18.34-.6,2.49-.09,4.97-.18,7.43-.27l1.52-.06c9.02-.35,15.54-.6,20.09-4.82,7.32-7.25,7.83-18.81,7.7-23.45-.62-13.81-10.21-16.38-19.49-18.86-5.39-1.44-10.97-2.94-15.04-6.55-6.96-6.84-8.68-19.29-7.96-28.69.32-7.02,5.27-11.54,13.66-12.42,12.66-2.36,30.44-1.8,41.63,4.76,15.37,7.94,25.89,24.37,26.82,35.03.3,4.28-.31,8.67-.91,12.92-1.42,10.12-2.76,19.68,7.57,27.25,8.33,6.62,19.11,8.94,26.7,9.71,41.57,3.51,156.77,9.16,195.18,2.29,6.71-1.36,12.86-9.41,17.33-22.67,7.19-21.36,8.67-52.71-.09-62.65l-.16-.21ZM945.16,68.92c-1.32,6.29-5.65,12.21-11.31,15.48-4.97,3.3-13.39,5.8-25.05,7.43-10.67,1.56-22.58,2.45-31.77,2.35-.86-.05-1.82-.07-2.84-.1-5.77-.15-13.66-.35-15.14-5.65l-.05-.15c-.54-1.77-.81-4.16-1.12-6.92-.18-1.63-.38-3.39-.66-5.28-.22-1.36-.46-2.71-.69-4.03-1.51-8.6-2.94-16.72.89-21.42,2.45-3,6.93-4.54,13.7-4.73,3.37-.04,7.45-.24,11.77-.45,20.82-1.03,49.34-2.43,59.6,10.11,3.52,4.79,3.39,9.92,2.66,13.38Z"/><path class="cls-1" d="M1040.65,198.86c6.5,0,12.74-.43,17.38-.75,1.05-.07,2.02-.14,2.89-.19,14.75-.96,18.83-7.18,24.47-15.79,1.77-2.7,3.77-5.75,6.3-8.89,4.02-4.88,9.05-9.05,14.93-12.42,15.92-9.16,27.07-13.95,38.34-16.78,5.08-1.28,12.45-2.11,17.49-2.84,8.8-1.29,20.5-.96,24.56-11.09,10.6-26.45,16.03-87.17-9.16-103.08l-.23-.13c-21.58-10.77-72.81-8.31-110.21-6.52-8.58.41-15.99.77-22.13.91-1.53.1-3.06.18-4.6.25-7.39.37-15.02.75-21.99,3.77-7.4,2.96-12.9,9.69-13.67,16.72-.54,4.17-.56,8.52-.57,12.73,0,1.9,0,3.82-.06,5.76.03,7.08-.03,15.65-.09,24.72-.26,36.43-.58,81.78,4.04,102.31,3.17,9.33,18.34,11.32,32.3,11.32ZM1049.27,99.74c.51-3.64,1-7.08,1.28-10.04l.17-1.18c.81-5.57,1.4-9.59,5.08-13.79,6.36-7.36,16.63-13.26,27.48-15.76,10.79-2.35,23.55-4.64,35.17-4.64,12.85,0,24.29,2.8,30.07,11.43,6.56,11.45-.64,27.28-11.21,34.34l-.22.15c-5.98,4.03-13.09,6.27-21.33,8.85-1.35.42-2.73.86-4.13,1.31-2.54.79-5.07,1.55-7.59,2.31-7.86,2.36-15.29,4.58-22.04,7.55-3.97,1.74-9.6,4.83-12.84,7.06-5.03,3.79-11.38,7.97-16.01,6.68-2.04-.57-3.56-2.16-4.63-4.84-2.46-6.57-.75-18.72.75-29.44Z"/><polygon class="cls-1" points="1203.37 .5 1198.89 .5 1198.89 25.84 1202.45 25.84 1203.37 25.84 1212.29 25.84 1212.29 21.61 1203.37 21.61 1203.37 .5"/><path class="cls-1" d="M1224.11.5l-9.95,25.34h4.85l2.01-5.32h11.4l2.01,5.32h4.96l-9.95-25.34h-5.33ZM1222.59,16.36l4.13-10.93,4.13,10.93h-8.26Z"/><path class="cls-1" d="M1259.2,15.7c-.48-1-1.14-1.82-2-2.46-.54-.4-1.12-.68-1.73-.87.69-.36,1.3-.89,1.82-1.63.79-1.13,1.19-2.4,1.19-3.82,0-1.22-.29-2.33-.88-3.3-.59-.98-1.39-1.74-2.41-2.29-1.02-.55-2.14-.83-3.36-.83h-9.22v25.34h10.21c1.32,0,2.52-.29,3.6-.88s1.93-1.4,2.55-2.44c.62-1.04.94-2.22.94-3.54,0-1.18-.24-2.26-.72-3.27ZM1250.73,4.54c.59,0,1.12.14,1.6.4.48.27.85.65,1.12,1.14.27.49.4,1.03.4,1.62s-.14,1.13-.42,1.62c-.28.49-.66.87-1.12,1.14-.46.27-.99.4-1.58.4h-3.78v-6.32h3.78ZM1254.83,20.03c-.31.54-.73.97-1.27,1.28-.54.32-1.14.48-1.8.48h-4.81v-7.12h4.81c.66,0,1.26.15,1.8.46.54.31.96.73,1.27,1.29s.46,1.16.46,1.82-.15,1.26-.46,1.8Z"/></svg>